<?xml version="1.0" encoding="UTF-8" ?>
<!DOCTYPE svg PUBLIC "-//W3C//DTD SVG 1.1//EN" "http://www.w3.org/Graphics/SVG/1.1/DTD/svg11.dtd">
<svg width="321pt" height="608pt" viewBox="0 0 321 608" version="1.1" xmlns="http://www.w3.org/2000/svg">
<g id="#ffffffff">
<path fill="#ffffff" opacity="1.00" d=" M 177.26 108.77 C 179.06 112.84 184.36 114.98 182.97 120.01 C 181.91 126.13 185.43 133.85 181.23 139.14 C 180.12 134.03 180.12 128.08 177.09 123.78 C 177.67 130.21 175.26 137.38 178.51 143.35 C 179.77 147.86 183.96 152.13 182.17 157.02 C 180.93 164.36 178.12 171.21 175.18 177.99 C 176.12 182.98 177.91 187.85 177.93 192.99 C 178.78 197.54 176.25 203.36 179.78 207.16 C 179.82 200.79 184.52 195.52 184.26 189.08 C 185.53 181.75 185.57 174.40 184.97 167.00 L 185.91 167.03 C 187.45 187.64 189.74 210.82 176.44 228.34 C 175.77 232.00 174.06 235.75 170.99 237.99 C 167.58 239.55 167.96 243.94 164.75 245.83 C 158.48 246.43 152.22 245.82 146.03 244.86 C 152.16 232.00 163.56 221.63 166.36 207.31 C 168.05 203.12 169.86 198.70 168.78 194.08 C 167.16 190.04 169.58 185.78 168.63 181.65 C 167.97 171.40 163.82 161.31 165.96 150.98 C 166.08 148.49 164.34 146.11 165.46 143.64 C 167.41 138.21 166.75 130.62 172.21 127.26 C 174.18 121.34 177.93 115.51 177.26 108.77 Z" />
</g>
<g id="#010101ff">
<path fill="#010101" opacity="1.00" d=" M 207.27 5.27 C 210.53 3.70 212.52 7.67 215.08 8.91 C 217.10 10.35 219.75 10.29 222.07 10.98 C 220.58 9.05 218.84 7.28 217.96 4.95 C 221.48 4.60 223.65 7.99 226.22 9.77 C 228.49 13.23 234.95 11.94 235.41 16.69 C 235.71 19.91 238.85 21.60 239.37 24.72 C 241.39 26.65 243.88 28.03 245.70 30.20 C 246.20 32.68 246.34 35.94 249.01 37.13 C 249.14 35.01 248.49 32.99 248.02 30.96 C 253.58 30.97 250.92 39.31 253.84 42.18 C 257.58 44.29 259.97 48.93 258.11 53.02 C 258.12 55.86 254.63 56.19 253.27 58.24 C 253.25 64.81 248.66 70.30 248.78 76.89 C 245.98 83.57 242.42 90.06 241.30 97.30 C 240.64 100.72 237.57 102.17 235.16 104.21 C 235.32 106.72 235.64 111.73 235.80 114.24 C 234.57 112.54 234.09 110.23 232.31 108.97 C 231.06 113.67 228.25 117.72 225.83 121.87 C 225.35 121.91 224.40 121.98 223.93 122.01 C 225.12 117.47 228.26 113.60 229.03 108.90 C 224.47 111.97 222.25 117.47 217.67 120.58 C 215.25 121.38 213.22 122.95 210.92 124.02 C 210.81 121.65 213.56 121.31 215.00 120.02 C 220.79 115.50 221.89 108.28 223.57 101.65 C 224.95 95.94 232.77 93.14 231.98 86.87 C 227.43 88.62 228.20 95.86 223.24 96.32 C 219.79 103.58 216.68 111.02 214.89 118.88 L 214.00 119.09 C 212.88 110.97 216.85 104.04 219.95 96.93 C 217.24 96.39 218.39 99.73 216.84 100.95 C 214.47 101.43 210.84 97.72 211.88 103.97 C 210.89 107.92 208.61 111.33 207.10 115.08 C 206.88 119.76 207.14 124.46 206.90 129.15 C 203.31 127.05 204.28 122.43 203.86 118.89 C 199.38 121.50 198.27 127.45 199.99 132.05 C 198.25 132.25 197.22 130.85 196.16 129.74 C 193.46 120.71 206.59 117.08 204.02 107.98 C 201.81 109.54 199.51 111.07 196.79 111.55 C 192.15 110.27 189.18 103.93 183.96 103.97 C 185.35 111.88 187.79 119.79 186.80 127.93 C 184.61 139.68 189.41 151.23 189.07 163.01 C 190.23 176.28 191.64 189.61 190.83 202.94 C 190.53 210.81 186.83 217.86 184.09 225.07 C 179.94 231.13 176.89 237.79 173.34 244.21 C 174.86 247.00 175.34 249.94 174.04 252.95 C 176.80 259.87 182.12 264.66 187.72 269.25 C 190.00 274.89 192.64 280.74 191.98 286.99 C 190.83 292.46 193.27 297.46 196.07 301.93 C 213.75 325.05 233.77 346.71 247.44 372.63 C 252.90 380.19 254.47 390.14 261.22 396.75 C 265.70 406.49 260.21 417.01 259.99 427.01 C 258.88 435.21 253.12 441.77 251.80 449.91 C 248.28 460.25 246.54 471.08 242.39 481.21 C 239.61 492.15 233.86 501.93 229.05 512.05 C 225.01 521.87 217.44 529.88 214.03 540.02 C 212.94 544.22 208.62 546.00 205.70 548.73 C 200.53 548.75 194.99 550.05 190.08 547.90 C 186.09 546.17 183.04 542.88 179.12 541.03 C 175.53 545.81 176.19 552.07 175.80 557.69 C 174.41 557.83 173.84 558.54 174.09 559.83 C 176.73 562.09 180.85 560.61 184.01 561.95 C 188.02 560.90 191.88 558.84 196.10 558.16 C 196.33 561.16 192.32 561.00 190.97 562.99 C 188.87 566.51 184.51 567.99 183.04 572.03 C 181.69 575.67 177.81 577.09 176.94 580.94 C 168.93 589.94 157.74 595.33 147.76 601.85 C 204.50 602.23 261.25 601.84 318.00 602.04 L 318.00 606.96 C 212.67 607.02 107.33 607.02 2.00 606.96 L 2.00 602.04 C 48.02 601.89 94.05 602.13 140.08 601.93 C 140.00 598.49 134.69 597.69 136.42 593.36 C 134.31 577.98 148.39 567.68 157.65 557.73 C 158.84 551.53 161.43 545.72 164.03 540.02 C 164.95 537.67 168.18 536.67 168.02 533.89 C 162.89 538.11 158.47 543.15 153.80 547.86 C 146.42 541.33 137.99 535.97 132.26 527.75 C 130.51 526.45 129.99 523.78 128.03 522.94 C 126.53 524.10 125.66 525.93 124.38 527.34 C 123.68 539.52 120.71 551.46 117.13 563.08 C 116.85 564.20 117.18 565.12 118.12 565.85 C 122.86 563.17 128.58 563.89 133.84 564.11 C 137.91 568.61 134.59 574.30 130.68 577.65 C 126.86 580.07 124.01 583.67 120.79 586.80 C 115.31 591.44 108.25 594.01 103.77 599.82 C 99.53 602.43 98.95 598.76 97.47 596.63 C 96.23 590.03 93.20 583.49 94.38 576.65 C 94.90 567.77 97.21 558.76 95.22 549.91 C 94.08 542.83 90.21 536.39 91.04 529.00 C 91.94 523.27 92.84 517.02 96.21 512.16 C 105.36 510.86 114.61 510.27 123.74 508.78 C 129.73 502.03 134.27 494.06 139.98 486.98 C 145.64 480.55 148.13 472.10 153.30 465.34 C 162.94 458.71 169.67 448.96 177.20 440.20 C 182.65 433.90 186.27 426.37 190.05 419.03 C 191.82 416.79 192.44 413.97 192.89 411.22 C 188.87 409.84 188.20 405.86 187.76 402.12 C 181.72 397.44 174.67 394.18 168.98 389.02 C 159.27 380.41 149.32 372.05 139.68 363.34 C 124.63 353.57 109.46 343.81 95.80 332.19 C 86.34 321.47 78.71 308.10 77.60 293.65 C 77.83 284.37 70.02 278.20 66.63 270.33 C 56.75 256.64 43.59 245.56 34.77 231.13 C 30.12 220.63 25.17 210.31 20.65 199.70 C 20.07 193.41 17.80 187.35 16.51 181.18 C 16.94 176.13 14.87 170.85 17.07 166.06 C 19.09 161.14 23.96 158.22 26.76 153.78 C 33.78 143.34 46.81 140.38 56.73 133.69 C 69.93 125.03 74.80 109.21 84.47 97.45 C 90.46 91.05 100.04 91.74 108.03 89.85 C 108.41 86.22 104.13 86.74 101.94 87.82 C 101.97 87.14 102.03 85.77 102.06 85.08 C 108.89 78.96 119.47 78.85 126.08 73.10 C 119.44 74.66 112.41 72.93 105.89 74.81 C 105.97 74.43 106.13 73.68 106.22 73.30 C 111.75 70.85 117.87 70.99 123.70 69.68 C 126.15 67.75 128.57 65.76 130.07 62.96 C 125.55 62.25 123.66 66.71 120.98 69.13 C 121.06 66.48 121.84 63.91 121.33 61.27 C 123.64 56.74 126.92 50.63 133.01 51.90 C 134.84 51.27 138.66 51.87 138.03 48.98 C 133.25 47.67 129.25 50.44 125.13 52.16 C 121.61 52.70 121.38 57.68 117.97 58.08 C 123.94 46.35 138.07 44.37 148.80 38.87 C 154.01 37.58 159.10 35.49 163.70 32.68 C 166.02 31.68 166.87 28.85 169.57 28.52 C 171.54 26.16 172.99 23.23 175.89 21.88 C 182.48 16.86 188.10 10.51 195.30 6.26 C 198.62 4.01 200.67 6.62 203.00 8.01 C 204.45 7.14 205.77 6.06 207.27 5.27 M 177.26 108.77 C 177.93 115.51 174.18 121.34 172.21 127.26 C 166.75 130.62 167.41 138.21 165.46 143.64 C 164.34 146.11 166.08 148.49 165.96 150.98 C 163.82 161.31 167.97 171.40 168.63 181.65 C 169.58 185.78 167.16 190.04 168.78 194.08 C 169.86 198.70 168.05 203.12 166.36 207.31 C 163.56 221.63 152.16 232.00 146.03 244.86 C 152.22 245.82 158.48 246.43 164.75 245.83 C 167.96 243.94 167.58 239.55 170.99 237.99 C 174.06 235.75 175.77 232.00 176.44 228.34 C 189.74 210.82 187.45 187.64 185.91 167.03 L 184.97 167.00 C 185.57 174.40 185.53 181.75 184.26 189.08 C 184.52 195.52 179.82 200.79 179.78 207.16 C 176.25 203.36 178.78 197.54 177.93 192.99 C 177.91 187.85 176.12 182.98 175.18 177.99 C 178.12 171.21 180.93 164.36 182.17 157.02 C 183.96 152.13 179.77 147.86 178.51 143.35 C 175.26 137.38 177.67 130.21 177.09 123.78 C 180.12 128.08 180.12 134.03 181.23 139.14 C 185.43 133.85 181.91 126.13 182.97 120.01 C 184.36 114.98 179.06 112.84 177.26 108.77 M 71.32 166.40 C 66.74 167.41 60.92 166.69 58.08 171.10 C 55.91 178.27 54.75 186.47 57.38 193.66 C 62.26 199.61 63.48 207.55 68.17 213.72 C 71.96 213.62 72.71 217.89 74.89 220.16 C 75.29 210.44 74.74 200.71 75.07 190.99 C 76.29 183.47 76.21 175.83 75.81 168.25 C 74.70 166.85 73.24 165.33 71.32 166.40 Z" />
</g>
</svg>
